<?xml version="1.0" encoding="UTF-8" standalone="no"?><!DOCTYPE svg PUBLIC "-//W3C//DTD SVG 1.1//EN" "http://www.w3.org/Graphics/SVG/1.1/DTD/svg11.dtd"><svg width="100%" height="100%" viewBox="0 0 633 851" version="1.1" xmlns="http://www.w3.org/2000/svg" xmlns:xlink="http://www.w3.org/1999/xlink" xml:space="preserve" xmlns:serif="http://www.serif.com/" style="fill-rule:evenodd;clip-rule:evenodd;stroke-linejoin:round;stroke-miterlimit:2;"><g><path d="M6.575,0.06l536.656,-0.06c0,-0 -139.92,60.091 -252.99,209.253l-283.033,0.07l-0.633,-209.263Z" style="fill:#f5821f;fill-rule:nonzero;"/><path d="M623.246,0.06l-0,218.3c-0,-0 -134.111,45.455 -170.487,188.683l-211.524,0c0,0 66.068,-290.998 382.011,-406.983" style="fill:#ed1c24;fill-rule:nonzero;"/><path d="M214.064,595.716l220.446,-0c-0,-0 -4.245,148.159 -4.518,254.598l-229.607,0c-0,0 -4.518,-165.958 13.679,-254.598" style="fill:#ed1c24;fill-rule:nonzero;"/><path d="M0,424.729l83.315,-0.413l0,31.877l-37.47,-0l-0,30.628l35.218,0l0,29.616l-35.218,-0l-0,30.677l36.39,-0l-0,34.095l-81.961,-0l-0.274,-156.48Z" style="fill:#008060;fill-rule:nonzero;"/><path d="M197.058,424.597l82.917,0l-0,31.286l-37.49,0l-0,30.274l35.243,-0l-0,29.03l-35.243,-0l-0,30.182l36.352,-0l-0,33.543l-81.779,-0l0,-154.315Z" style="fill:#008060;fill-rule:nonzero;"/><path d="M415.291,424.316l82.873,0l0,31.877l-37.567,0l0,30.629l35.32,-0l0,29.615l-35.32,0l0,30.677l36.453,-0l0,34.095l-81.759,0l-0,-156.893Z" style="fill:#008060;fill-rule:nonzero;"/><path d="M105.68,425.554l43.563,-0l0,121.559l30.716,0l-0,32.977l-74.01,-0l-0.269,-154.536Z" style="fill:#008060;fill-rule:nonzero;"/><path d="M291.343,424.729l38.499,-0l17.602,115.677l21.28,-115.677l32.876,-0l-26.159,155.356l-64.853,0l-19.245,-155.356Z" style="fill:#008060;fill-rule:nonzero;"/><path d="M516.38,425.554l44.332,-0l-0,8.993c-0,0 23.844,-12.455 39.775,-13.646c0,0 19.288,-2.204 31.853,25.021l0,134.168l-43.242,-0l-0,-117.108c-0,-0 -13.948,-19.048 -28.386,1.104l-0,114.822l-44.332,0l-0,-153.354Z" style="fill:#f5821f;fill-rule:nonzero;"/><path d="M491.58,623.427c-0,10.175 -8.652,18.462 -19.206,18.462c-5.037,-0 -9.944,-1.906 -13.516,-5.406c-3.587,-3.53 -5.584,-8.077 -5.584,-13.056c-0,-4.84 1.997,-9.521 5.584,-13.012c3.572,-3.442 8.479,-5.445 13.516,-5.445c5.214,0 9.944,2.003 13.636,5.445c3.62,3.491 5.57,8.172 5.57,13.012m-19.206,-21.294c-12.138,-0 -22.048,9.646 -22.048,21.294c-0,5.709 2.261,11.029 6.477,14.976c4.139,4.067 9.689,6.256 15.571,6.256c5.935,0 11.509,-2.189 15.643,-6.256c4.153,-3.947 6.463,-9.267 6.463,-14.976c-0,-5.608 -2.31,-10.961 -6.463,-14.908c-4.134,-4.139 -9.708,-6.386 -15.643,-6.386" style="fill:#ed1c24;fill-rule:nonzero;"/><path d="M466.213,621.233l-0,-9.257l5.262,-0c2.065,-0 3.827,0.312 4.802,1.147c1.08,0.783 1.579,1.95 1.579,3.568c0,1.445 -0.499,2.578 -1.579,3.318c-1.086,0.782 -2.804,1.224 -4.994,1.224l-5.07,0Zm17.218,14.467l-6.396,-11.754c1.388,-0.696 2.497,-1.762 3.414,-2.713c1.052,-1.378 1.532,-2.804 1.532,-4.542c-0,-1.277 -0.245,-2.507 -0.917,-3.568c-0.538,-1.147 -1.441,-2.132 -2.502,-2.794c-0.821,-0.557 -1.786,-0.826 -2.886,-1.076c-1.224,-0.24 -3.116,-0.403 -5.454,-0.403l-7.534,-0l0,3.126l0.226,12.224l0,12.22c0,0.879 0.658,1.565 1.465,1.565c0.907,0 1.666,-0.686 1.666,-1.565l-0,-12.22l7.61,0l6.871,12.95c0.466,0.706 1.368,1.085 2.041,0.706c0.864,-0.428 1.181,-1.373 0.864,-2.156" style="fill:#ed1c24;fill-rule:nonzero;"/></g></svg>
