<?xml version="1.0" encoding="UTF-8" standalone="no"?><!DOCTYPE svg PUBLIC "-//W3C//DTD SVG 1.1//EN" "http://www.w3.org/Graphics/SVG/1.1/DTD/svg11.dtd"><svg width="100%" height="100%" viewBox="0 0 2547 751" version="1.1" xmlns="http://www.w3.org/2000/svg" xmlns:xlink="http://www.w3.org/1999/xlink" xml:space="preserve" xmlns:serif="http://www.serif.com/" style="fill-rule:evenodd;clip-rule:evenodd;stroke-linejoin:round;stroke-miterlimit:2;"><g><g><rect x="0" y="0" width="386.804" height="225.992" style="fill:#00903b;"/><rect x="0" y="262.279" width="386.804" height="225.979" style="fill:#f5821f;"/><rect x="0" y="524.542" width="386.804" height="225.987" style="fill:#ed1c24;"/></g><g><rect x="2160" y="0" width="386.804" height="225.992" style="fill:#00903b;"/><rect x="2160" y="262.279" width="386.804" height="225.979" style="fill:#f5821f;"/><rect x="2160" y="524.542" width="386.804" height="225.987" style="fill:#ed1c24;"/></g><g><g><path d="M1751.87,182.334l-349.06,0l-0,-182.334l643.003,0c0,0 -192.632,82.189 -293.943,182.334Z" style="fill:#f5821f;fill-rule:nonzero;"/><path d="M2122.83,-0l0,189.482c0,-0 -182.352,47.63 -206.119,183.47c-0,-0 -38.189,164.366 -28.833,377.577l-272.568,0c0,0 -9.49,-284.628 72.88,-446.701c-0,-0 79.378,-188.268 434.64,-303.828" style="fill:#ed1c24;fill-rule:nonzero;"/><g><path d="M1991.14,707.05c0,20.762 -16.962,37.779 -37.641,37.779c-10.125,0 -19.671,-3.912 -26.688,-11.15c-7.067,-7.15 -10.983,-16.529 -10.983,-26.629c-0,-9.967 3.916,-19.683 10.983,-26.796c7.017,-7 16.563,-11 26.688,-11c10.095,0 19.583,4 26.679,11c7.125,7.113 10.962,16.829 10.962,26.796m-37.641,-43.642c-24.059,0 -43.584,19.617 -43.584,43.642c0,11.654 4.575,22.533 12.809,30.729c8.204,8.167 18.995,12.75 30.775,12.75c11.625,0 22.387,-4.583 30.833,-12.75c8.058,-8.196 12.704,-19.075 12.704,-30.729c0,-11.567 -4.646,-22.521 -12.704,-30.625c-8.446,-8.329 -19.208,-13.017 -30.833,-13.017" style="fill:#ed1c24;fill-rule:nonzero;"/><path d="M1942.86,703.024l-0,-16.775l9.141,-0c3.584,-0 6.592,0.629 8.342,2.225c1.9,1.279 2.729,3.466 2.729,6.358c0,2.575 -0.829,4.521 -2.729,6.063c-1.967,1.27 -4.904,2.129 -8.667,2.129l-8.816,-0Zm29.845,26.062l-11.104,-21.208c2.467,-1.258 4.338,-3.167 5.9,-4.854c1.854,-2.504 2.746,-5.134 2.746,-8.192c0,-2.312 -0.425,-4.525 -1.65,-6.358c-1,-2.225 -2.471,-3.967 -4.225,-5.225c-1.467,-1.021 -3.254,-1.488 -5.121,-1.854c-2.096,-0.3 -5.25,-0.705 -9.483,-0.705l-13.008,0l-0,5.559l0.291,22.133l0,22.092c0,1.629 1.213,2.779 2.559,2.779c1.666,-0 2.916,-1.15 2.916,-2.779l0,-22.092l13.279,0l11.792,23.429c0.788,1.163 2.417,2.017 3.725,1.163c1.446,-0.738 1.871,-2.463 1.383,-3.888" style="fill:#ed1c24;fill-rule:nonzero;"/></g></g><path d="M696.598,0l-0.187,750.529l-272.568,0l0,-750.529" style="fill:#00903b;fill-rule:nonzero;"/><g><path d="M985.381,182.334l-251.704,0l87.301,-182.334l251.784,0l-87.381,182.334Z" style="fill:#00903b;"/><path d="M1005.78,182.334l87.455,-182.334l272.601,0l-359.538,750.529l-272.568,0l272.05,-568.195Z" style="fill:#f5821f;"/></g></g></g></svg>